<?xml version="1.0" encoding="UTF-8"?>
<!DOCTYPE svg PUBLIC "-//W3C//DTD SVG 1.1//EN" "http://www.w3.org/Graphics/SVG/1.1/DTD/svg11.dtd">
<!-- Creator: CorelDRAW X8 -->
<svg xmlns="http://www.w3.org/2000/svg" xml:space="preserve" width="101.87mm" height="44.1976mm" version="1.1" style="shape-rendering:geometricPrecision; text-rendering:geometricPrecision; image-rendering:optimizeQuality; fill-rule:evenodd; clip-rule:evenodd"
viewBox="0 0 1843 800"
 xmlns:xlink="http://www.w3.org/1999/xlink">
 <defs>
  <style type="text/css">
   <![CDATA[
    .fil2 {fill:#FE0000}
    .fil1 {fill:#0187AC;fill-rule:nonzero}
    .fil0 {fill:#0187AC;fill-rule:nonzero}
   ]]>
  </style>
 </defs>
 <g id="Слой_x0020_1">
  <metadata id="CorelCorpID_0Corel-Layer"/>
  <path class="fil0" d="M0 237l113 0c21,0 41,4 58,11 17,7 32,17 44,29 13,12 22,27 29,43 6,17 10,35 10,54 0,20 -4,38 -11,55 -7,17 -16,32 -29,44 -13,13 -28,23 -46,30 -17,7 -37,11 -58,11l-110 0 0 -277zm63 58l0 161 49 0c11,0 21,-2 31,-6 10,-4 18,-9 25,-17 7,-7 13,-15 17,-25 4,-10 6,-21 6,-33 0,-12 -2,-22 -6,-32 -4,-10 -10,-18 -17,-26 -7,-7 -16,-12 -26,-16 -10,-4 -21,-6 -32,-6l-47 0z"/>
  <path id="1" class="fil0" d="M429 519c-20,0 -39,-3 -57,-10 -17,-8 -33,-18 -46,-31 -14,-13 -24,-28 -32,-45 -7,-18 -11,-37 -11,-57 0,-21 4,-40 11,-57 8,-18 18,-33 32,-46 13,-13 29,-23 46,-30 18,-8 37,-11 57,-11 21,0 40,3 58,11 18,7 33,17 47,30 13,13 23,28 30,45 8,18 12,37 12,57 0,21 -4,40 -12,58 -7,17 -17,32 -30,45 -14,13 -29,23 -47,31 -18,7 -37,10 -58,10zm0 -58c12,0 23,-2 33,-6 10,-5 19,-11 26,-19 8,-7 14,-16 18,-27 4,-10 6,-22 6,-34 0,-12 -2,-23 -6,-33 -4,-11 -10,-20 -18,-27 -7,-8 -16,-14 -26,-19 -10,-4 -21,-6 -33,-6 -12,0 -23,2 -32,6 -10,5 -19,11 -27,19 -7,7 -13,16 -17,27 -4,10 -6,22 -6,34 0,12 2,23 6,34 4,10 10,19 17,27 8,8 17,14 27,18 9,4 20,6 32,6z"/>
  <path id="2" class="fil0" d="M751 290c-12,0 -23,2 -33,6 -10,5 -19,11 -26,19 -7,7 -13,16 -17,27 -5,10 -7,21 -7,33 0,12 2,23 7,34 4,10 10,19 17,27 8,8 17,14 27,18 10,5 22,7 34,7 17,0 32,-4 44,-12 13,-8 23,-19 31,-33l49 34c-13,22 -30,39 -51,51 -20,12 -44,18 -72,18 -22,0 -41,-3 -60,-11 -18,-7 -33,-17 -47,-30 -13,-13 -24,-29 -31,-46 -8,-18 -11,-37 -11,-57 0,-20 3,-39 11,-56 7,-18 18,-33 31,-46 13,-13 28,-23 46,-30 18,-8 38,-11 59,-11 27,0 52,5 73,17 21,11 38,28 51,52l-50 34c-8,-13 -18,-24 -30,-33 -13,-8 -28,-12 -45,-12z"/>
  <path class="fil0" d="M1160 514l0 -51 99 -80c5,-4 11,-9 16,-13 5,-4 9,-8 12,-13 3,-4 6,-9 7,-14 2,-5 3,-11 3,-18 0,-11 -4,-20 -11,-27 -8,-7 -18,-10 -31,-10 -14,0 -25,3 -34,10 -9,7 -16,15 -22,25l-48 -29c5,-9 11,-17 18,-24 7,-8 15,-14 23,-19 9,-6 19,-10 29,-13 11,-3 22,-5 35,-5 15,0 29,3 42,7 12,5 23,11 31,19 8,8 15,18 20,28 4,11 6,23 6,35 0,11 -1,22 -4,31 -2,9 -6,18 -12,26 -5,8 -11,16 -19,23 -8,8 -17,16 -28,24l-48 37 112 0 0 51 -196 0z"/>
  <path id="1" class="fil0" d="M1591 408l0 52 -27 0 0 54 -60 0 0 -54 -131 0 0 -52 123 -171 68 0 0 171 27 0zm-87 0l0 -92 -66 92 66 0z"/>
  <path class="fil1" d="M1665 663l-273 0 -219 132 0 0c-5,3 -11,5 -17,5 -6,0 -12,-2 -17,-5 -6,-3 -10,-7 -13,-13 -4,-5 -5,-11 -5,-17l0 -102 -51 0c-26,0 -50,-11 -67,-28 -17,-18 -28,-41 -28,-67l0 -390c0,-26 11,-50 28,-67 17,-17 41,-28 67,-28l494 0 0 76 -493 0c-5,0 -11,2 -14,6 -4,4 -6,9 -6,14l0 388c0,5 2,10 6,14l0 0c3,4 9,6 14,6l125 0 0 7 0 80c0,2 1,4 2,6l0 0c1,1 2,3 4,3 1,1 3,2 5,2 2,0 3,-1 5,-2l159 -96 293 0c5,0 10,-2 14,-6 4,-4 6,-9 6,-14l0 -287 76 0 0 288c0,26 -11,50 -28,67 -17,17 -41,28 -67,28z"/>
  <path class="fil2" d="M1685 0l75 0c4,0 7,3 7,7l0 69 70 0c3,0 6,4 6,7l0 76c0,3 -3,6 -6,6l-70 0 0 70c0,4 -3,7 -7,7l-75 0c-4,0 -7,-3 -7,-7l0 -70 -70 0c-3,0 -6,-3 -6,-6l0 -76c0,-3 3,-7 6,-7l70 0 0 -69c0,-4 3,-7 7,-7z"/>
 </g>
</svg>
