<?xml version="1.0" encoding="utf-8"?>
<!-- Generator: Adobe Illustrator 24.1.2, SVG Export Plug-In . SVG Version: 6.00 Build 0)  -->
<svg version="1.1" id="Слой_1" xmlns="http://www.w3.org/2000/svg" xmlns:xlink="http://www.w3.org/1999/xlink" x="0px" y="0px"
	 viewBox="0 0 288.8 125.3" style="enable-background:new 0 0 288.8 125.3;" xml:space="preserve">
<style type="text/css">
	.st0{fill:#FFFFFF;}
	.st1{fill-rule:evenodd;clip-rule:evenodd;fill:#FE0000;}
</style>
<g id="Слой_x0020_1">
	<path class="st0" d="M0.1,37.1h17.7c3.3,0,6.4,0.6,9.1,1.7s5,2.7,6.9,4.5c2,1.9,3.4,4.2,4.5,6.7c0.9,2.7,1.6,5.5,1.6,8.5
		c0,3.1-0.6,6-1.7,8.6c-1.1,2.7-2.5,5-4.5,6.9c-2,2-4.4,3.6-7.2,4.7c-2.7,1.1-5.8,1.7-9.1,1.7H0.1V37.1z M9.9,46.2v25.2h7.7
		c1.7,0,3.3-0.3,4.9-0.9c1.6-0.6,2.8-1.4,3.9-2.7c1.1-1.1,2-2.3,2.7-3.9c0.6-1.6,0.9-3.3,0.9-5.2s-0.3-3.4-0.9-5
		c-0.6-1.6-1.6-2.8-2.7-4.1c-1.1-1.1-2.5-1.9-4.1-2.5c-1.6-0.6-3.3-0.9-5-0.9H9.9z"/>
	<path id="_x31_" class="st0" d="M67.3,81.3c-3.1,0-6.1-0.5-8.9-1.6c-2.7-1.3-5.2-2.8-7.2-4.9c-2.2-2-3.8-4.4-5-7
		C45,65,44.4,62,44.4,58.9c0-3.3,0.6-6.3,1.7-8.9c1.3-2.8,2.8-5.2,5-7.2c2-2,4.5-3.6,7.2-4.7c2.8-1.3,5.8-1.7,8.9-1.7
		c3.3,0,6.3,0.5,9.1,1.7c2.8,1.1,5.2,2.7,7.4,4.7c2,2,3.6,4.4,4.7,7c1.3,2.8,1.9,5.8,1.9,8.9c0,3.3-0.6,6.3-1.9,9.1
		c-1.1,2.7-2.7,5-4.7,7c-2.2,2-4.5,3.6-7.4,4.9C73.5,80.8,70.5,81.3,67.3,81.3z M67.3,72.2c1.9,0,3.6-0.3,5.2-0.9
		c1.6-0.8,3-1.7,4.1-3c1.3-1.1,2.2-2.5,2.8-4.2c0.6-1.6,0.9-3.4,0.9-5.3s-0.3-3.6-0.9-5.2c-0.6-1.7-1.6-3.1-2.8-4.2
		c-1.1-1.3-2.5-2.2-4.1-3c-1.6-0.6-3.3-0.9-5.2-0.9c-1.9,0-3.6,0.3-5,0.9c-1.6,0.8-3,1.7-4.2,3c-1.1,1.1-2,2.5-2.7,4.2
		c-0.6,1.6-0.9,3.4-0.9,5.3c0,1.9,0.3,3.6,0.9,5.3c0.6,1.6,1.6,3,2.7,4.2c1.3,1.3,2.7,2.2,4.2,2.8C63.7,71.9,65.4,72.2,67.3,72.2z"
		/>
	<path id="_x32_" class="st0" d="M117.7,45.4c-1.9,0-3.6,0.3-5.2,0.9c-1.6,0.8-3,1.7-4.1,3c-1.1,1.1-2,2.5-2.7,4.2
		c-0.8,1.6-1.1,3.3-1.1,5.2s0.3,3.6,1.1,5.3c0.6,1.6,1.6,3,2.7,4.2c1.3,1.3,2.7,2.2,4.2,2.8c1.6,0.8,3.4,1.1,5.3,1.1
		c2.7,0,5-0.6,6.9-1.9c2-1.3,3.6-3,4.9-5.2l7.7,5.3c-2,3.4-4.7,6.1-8,8c-3.1,1.9-6.9,2.8-11.3,2.8c-3.4,0-6.4-0.5-9.4-1.7
		c-2.8-1.1-5.2-2.7-7.4-4.7c-2-2-3.8-4.5-4.9-7.2c-1.3-2.8-1.7-5.8-1.7-8.9c0-3.1,0.5-6.1,1.7-8.8c1.1-2.8,2.8-5.2,4.9-7.2
		s4.4-3.6,7.2-4.7c2.8-1.3,6-1.7,9.2-1.7c4.2,0,8.1,0.8,11.4,2.7c3.3,1.7,6,4.4,8,8.1l-7.8,5.3c-1.3-2-2.8-3.8-4.7-5.2
		C122.7,46,120.3,45.4,117.7,45.4z"/>
	<path class="st0" d="M181.7,80.5v-8L197.2,60c0.8-0.6,1.7-1.4,2.5-2c0.8-0.6,1.4-1.3,1.9-2c0.5-0.6,0.9-1.4,1.1-2.2
		c0.3-0.8,0.5-1.7,0.5-2.8c0-1.7-0.6-3.1-1.7-4.2c-1.3-1.1-2.8-1.6-4.9-1.6c-2.2,0-3.9,0.5-5.3,1.6s-2.5,2.3-3.4,3.9l-7.5-4.5
		c0.8-1.4,1.7-2.7,2.8-3.8c1.1-1.3,2.3-2.2,3.6-3c1.4-0.9,3-1.6,4.5-2c1.7-0.5,3.4-0.8,5.5-0.8c2.3,0,4.5,0.5,6.6,1.1
		c1.9,0.8,3.6,1.7,4.9,3c1.3,1.3,2.3,2.8,3.1,4.4c0.6,1.7,0.9,3.6,0.9,5.5c0,1.7-0.2,3.4-0.6,4.9c-0.3,1.4-0.9,2.8-1.9,4.1
		c-0.8,1.3-1.7,2.5-3,3.6c-1.3,1.3-2.7,2.5-4.4,3.8l-7.5,5.8h17.5v8H181.7z"/>
	<path id="_x31__1_" class="st0" d="M249.2,63.9V72H245v8.5h-9.4V72h-20.5v-8.1l19.3-26.8H245v26.8H249.2z M235.6,63.9V49.5
		l-10.3,14.4H235.6z"/>
	<path class="st0" d="M260.8,103.8h-42.8l-34.3,20.7l0,0c-0.8,0.5-1.7,0.8-2.7,0.8s-1.9-0.3-2.7-0.8c-0.9-0.5-1.6-1.1-2-2
		c-0.6-0.8-0.8-1.7-0.8-2.7v-16h-8c-4.1,0-7.8-1.7-10.5-4.4c-2.7-2.8-4.4-6.4-4.4-10.5V27.9c0-4.1,1.7-7.8,4.4-10.5
		c2.7-2.7,6.4-4.4,10.5-4.4H245v11.9h-77.2c-0.8,0-1.7,0.3-2.2,0.9c-0.6,0.6-0.9,1.4-0.9,2.2v60.8c0,0.8,0.3,1.6,0.9,2.2l0,0
		c0.5,0.6,1.4,0.9,2.2,0.9h19.6V93v12.5c0,0.3,0.2,0.6,0.3,0.9l0,0c0.2,0.2,0.3,0.5,0.6,0.5c0.2,0.2,0.5,0.3,0.8,0.3
		c0.3,0,0.5-0.2,0.8-0.3l24.9-15h45.9c0.8,0,1.6-0.3,2.2-0.9c0.6-0.6,0.9-1.4,0.9-2.2V43.8h11.9V89c0,4.1-1.7,7.8-4.4,10.5
		C268.6,102.1,264.9,103.8,260.8,103.8z"/>
	<path class="st1" d="M264,0h11.7c0.6,0,1.1,0.5,1.1,1.1v10.8h11c0.5,0,0.9,0.6,0.9,1.1v11.9c0,0.5-0.5,0.9-0.9,0.9h-11v11
		c0,0.6-0.5,1.1-1.1,1.1H264c-0.6,0-1.1-0.5-1.1-1.1v-11h-11c-0.5,0-0.9-0.5-0.9-0.9V13c0-0.5,0.5-1.1,0.9-1.1h11V1.1
		C262.9,0.5,263.3,0,264,0z"/>
</g>
</svg>
